<?xml version="1.0" encoding="UTF-8"?>
<svg version="1.1" xmlns="http://www.w3.org/2000/svg" width="96" height="96">
<path d="M0 0 C1.06992187 -0.04898437 2.13984375 -0.09796875 3.2421875 -0.1484375 C6.125 0.375 6.125 0.375 7.9609375 2.69921875 C9.125 5.375 9.125 5.375 9.875 8.5625 C10.91018117 11.68692796 10.91018117 11.68692796 14.3125 13 C18.24697364 13.38699741 18.64669459 13.36165953 21.6875 11.375 C25.125 9.375 25.125 9.375 28.3125 9.875 C32.11831673 11.90476893 34.39454695 13.68582732 36.125 17.6875 C36.125 21.05456872 34.68074384 22.74726529 32.95703125 25.54296875 C31.85935607 27.59973886 31.85935607 27.59973886 32.25 31.0625 C35.04051445 35.99240886 38.9485453 36.67690375 44.125 38.375 C45.93539196 40.18539196 45.42380517 42.80590435 45.5 45.25 C45.54898438 46.31992187 45.59796875 47.38984375 45.6484375 48.4921875 C45.125 51.375 45.125 51.375 42.80078125 53.2109375 C40.125 54.375 40.125 54.375 36.9375 55.125 C33.81307204 56.16018117 33.81307204 56.16018117 32.5 59.5625 C32.11300259 63.49697364 32.13834047 63.89669459 34.125 66.9375 C36.125 70.375 36.125 70.375 35.625 73.5625 C33.59523107 77.36831673 31.81417268 79.64454695 27.8125 81.375 C24.44543128 81.375 22.75273471 79.93074384 19.95703125 78.20703125 C17.90026114 77.10935607 17.90026114 77.10935607 14.4375 77.5 C9.50759114 80.29051445 8.82309625 84.1985453 7.125 89.375 C5.31460804 91.18539196 2.69409565 90.67380517 0.25 90.75 C-0.81992187 90.79898438 -1.88984375 90.84796875 -2.9921875 90.8984375 C-5.875 90.375 -5.875 90.375 -7.7109375 88.05078125 C-8.875 85.375 -8.875 85.375 -9.625 82.1875 C-10.66018117 79.06307204 -10.66018117 79.06307204 -14.0625 77.75 C-17.99697364 77.36300259 -18.39669459 77.38834047 -21.4375 79.375 C-24.875 81.375 -24.875 81.375 -28.0625 80.875 C-31.86831673 78.84523107 -34.14454695 77.06417268 -35.875 73.0625 C-35.875 69.69543128 -34.43074384 68.00273471 -32.70703125 65.20703125 C-31.60935607 63.15026114 -31.60935607 63.15026114 -32 59.6875 C-34.79051445 54.75759114 -38.6985453 54.07309625 -43.875 52.375 C-45.68539196 50.56460804 -45.17380517 47.94409565 -45.25 45.5 C-45.29898438 44.43007813 -45.34796875 43.36015625 -45.3984375 42.2578125 C-44.875 39.375 -44.875 39.375 -42.55078125 37.5390625 C-39.875 36.375 -39.875 36.375 -36.6875 35.625 C-33.56307204 34.58981883 -33.56307204 34.58981883 -32.25 31.1875 C-31.86300259 27.25302636 -31.88834047 26.85330541 -33.875 23.8125 C-35.875 20.375 -35.875 20.375 -35.375 17.1875 C-33.34523107 13.38168327 -31.56417268 11.10545305 -27.5625 9.375 C-24.19543128 9.375 -22.50273471 10.81925616 -19.70703125 12.54296875 C-17.65026114 13.64064393 -17.65026114 13.64064393 -14.1875 13.25 C-9.25759114 10.45948555 -8.57309625 6.5514547 -6.875 1.375 C-5.06460804 -0.43539196 -2.44409565 0.07619483 0 0 Z M-2.875 4.375 C-3.20371094 5.40560547 -3.20371094 5.40560547 -3.5390625 6.45703125 C-6.12665649 13.8095849 -6.12665649 13.8095849 -9.6875 16.5 C-13.33614763 17.50158954 -16.10772876 17.78597504 -19.875 17.375 C-20.761875 16.83875 -21.64875 16.3025 -22.5625 15.75 C-23.325625 15.29625 -24.08875 14.8425 -24.875 14.375 C-27.59120226 15.07345201 -28.58156459 16.00501623 -30.3125 18.1875 C-30.498125 18.909375 -30.68375 19.63125 -30.875 20.375 C-29.88164799 22.04563747 -28.88068242 23.71175599 -27.875 25.375 C-27.3127502 30.52895649 -27.73128425 34.183379 -30.875 38.375 C-33.19220105 39.44801021 -35.44821604 40.17367419 -37.9140625 40.83203125 C-39.86236093 41.19810333 -39.86236093 41.19810333 -40.875 42.375 C-40.91580783 44.37458364 -40.91754356 46.37545254 -40.875 48.375 C-39.84439453 48.70371094 -39.84439453 48.70371094 -38.79296875 49.0390625 C-31.4404151 51.62665649 -31.4404151 51.62665649 -28.75 55.1875 C-27.74841046 58.83614763 -27.46402496 61.60772876 -27.875 65.375 C-28.41125 66.261875 -28.9475 67.14875 -29.5 68.0625 C-29.95375 68.825625 -30.4075 69.58875 -30.875 70.375 C-30.17654799 73.09120226 -29.24498377 74.08156459 -27.0625 75.8125 C-25.9796875 76.0909375 -25.9796875 76.0909375 -24.875 76.375 C-23.20436253 75.38164799 -21.53824401 74.38068242 -19.875 73.375 C-14.70278976 72.81075888 -11.06666614 73.20796336 -6.875 76.375 C-5.1954222 79.60415732 -3.97976426 82.91123912 -2.875 86.375 C-0.895 86.375 1.085 86.375 3.125 86.375 C3.45371094 85.34439453 3.45371094 85.34439453 3.7890625 84.29296875 C6.37665649 76.9404151 6.37665649 76.9404151 9.9375 74.25 C13.58614763 73.24841046 16.35772876 72.96402496 20.125 73.375 C21.011875 73.91125 21.89875 74.4475 22.8125 75 C23.575625 75.45375 24.33875 75.9075 25.125 76.375 C27.84120226 75.67654799 28.83156459 74.74498377 30.5625 72.5625 C30.8409375 71.4796875 30.8409375 71.4796875 31.125 70.375 C30.13164799 68.70436253 29.13068242 67.03824401 28.125 65.375 C27.5627502 60.22104351 27.98128425 56.566621 31.125 52.375 C33.44220105 51.30198979 35.69821604 50.57632581 38.1640625 49.91796875 C40.11236093 49.55189667 40.11236093 49.55189667 41.125 48.375 C41.16580783 46.37541636 41.16754356 44.37454746 41.125 42.375 C40.09439453 42.04628906 40.09439453 42.04628906 39.04296875 41.7109375 C31.6904151 39.12334351 31.6904151 39.12334351 29 35.5625 C27.99841046 31.91385237 27.71402496 29.14227124 28.125 25.375 C28.66125 24.488125 29.1975 23.60125 29.75 22.6875 C30.20375 21.924375 30.6575 21.16125 31.125 20.375 C30.42654799 17.65879774 29.49498377 16.66843541 27.3125 14.9375 C26.2296875 14.6590625 26.2296875 14.6590625 25.125 14.375 C23.45436253 15.36835201 21.78824401 16.36931758 20.125 17.375 C14.97104351 17.9372498 11.316621 17.51871575 7.125 14.375 C6.05198979 12.05779895 5.32632581 9.80178396 4.66796875 7.3359375 C4.30189667 5.38763907 4.30189667 5.38763907 3.125 4.375 C1.12541636 4.33419217 -0.87545254 4.33245644 -2.875 4.375 Z " fill="#7743FF" transform="translate(47.875,2.625)"/>
<path d="M0 0 C5.82839481 4.45031447 8.65246844 10.93006158 10.92578125 17.75 C11.89618888 27.16772649 10.1151172 35.99368407 4.30078125 43.625 C-1.31109974 49.58046554 -9.54928885 52.80935145 -17.63671875 53.0625 C-25.76201837 52.95464204 -33.60514032 50.20801602 -39.57421875 44.59765625 C-46.06708585 36.59993193 -47.94479596 27.80455373 -47.07421875 17.75 C-45.17806751 10.07871384 -41.44555238 3.41291685 -34.60546875 -0.75390625 C-22.80715165 -6.84391993 -11.63877776 -7.0139527 0 0 Z M-37.07421875 6.75 C-41.73154331 14.02706963 -43.99333044 20.04991534 -43.07421875 28.75 C-40.82376112 36.15435541 -37.28798032 41.64038176 -30.51171875 45.5 C-24.05555164 48.94038585 -17.74395128 50.16930453 -10.59375 47.99609375 C-2.200196 44.41090737 2.01128053 39.92528419 5.92578125 31.75 C7.92785996 25.74376387 7.66280225 19.76005504 5.17578125 13.9375 C1.05464473 5.82356686 -4.45884828 1.62179016 -13.07421875 -1.25 C-22.17498006 -2.25206939 -30.56883822 0.06391445 -37.07421875 6.75 Z " fill="#A9B9FF" transform="translate(66.07421875,24.25)"/>
<path d="M0 0 C1.32 0.33 2.64 0.66 4 1 C2.02571072 8.73902462 -0.40117927 16.20524631 -3.1875 23.6875 C-3.55552734 24.68716797 -3.92355469 25.68683594 -4.30273438 26.71679688 C-5.19773242 29.1460773 -6.09685448 31.57373953 -7 34 C-8.32 33.67 -9.64 33.34 -11 33 C-9.55932506 25.47207764 -7.12995528 18.57886064 -4.375 11.4375 C-3.95476563 10.33341797 -3.53453125 9.22933594 -3.1015625 8.09179688 C-2.07321024 5.39237219 -1.0392595 2.69523999 0 0 Z " fill="#7743FF" transform="translate(52,31)"/>
<path d="M0 0 C3.49517264 0.6061448 5.54586317 1.91902966 8.25 4.1875 C8.95640625 4.75855469 9.6628125 5.32960938 10.390625 5.91796875 C12 8 12 8 12.50390625 10.96484375 C11.86414692 14.81827785 10.65733574 15.90250517 7.6875 18.375 C6.88699219 19.06335938 6.08648437 19.75171875 5.26171875 20.4609375 C3 22 3 22 0 22 C-0.33 21.01 -0.66 20.02 -1 19 C2.465 15.535 2.465 15.535 6 12 C4.51131714 9.02263428 3.46121178 7.16561364 1.375 4.75 C0.199375 3.38875 0.199375 3.38875 -1 2 C-0.67 1.34 -0.34 0.68 0 0 Z " fill="#7541FF" transform="translate(57,37)"/>
<path d="M0 0 C0.33 0.99 0.66 1.98 1 3 C-1.31 5.31 -3.62 7.62 -6 10 C-4.51131714 12.97736572 -3.46121178 14.83438636 -1.375 17.25 C-0.59125 18.1575 0.1925 19.065 1 20 C0.67 20.66 0.34 21.32 0 22 C-3.49517264 21.3938552 -5.54586317 20.08097034 -8.25 17.8125 C-8.95640625 17.24144531 -9.6628125 16.67039062 -10.390625 16.08203125 C-12 14 -12 14 -12.50390625 11.03515625 C-11.86414692 7.18172215 -10.65733574 6.09749483 -7.6875 3.625 C-6.88699219 2.93664063 -6.08648437 2.24828125 -5.26171875 1.5390625 C-3 0 -3 0 0 0 Z " fill="#7541FF" transform="translate(39,37)"/>
</svg>
